# xmcd
#
# Track frame offsets:
#	150
#	37025
#	50670
#	80531
#	135687
#	166297
#
# Disc length: 2463 seconds
#
# Revision: 1
# Processed by: cddbd v1.5.2PL0 Copyright (c) Steve Scherf et al.
# Submitted via: audiograbber 1.83.01
#
DISCID=4d099d06
DTITLE=Grateful Dead - 77-10-29 Evans Field House, Northern Illinois University
DTITLE=, DeKalb IL
DYEAR=1900
DGENRE=
TTITLE0=St Stephen
TTITLE1=Drums
TTITLE2=Not Fade Away
TTITLE3=Black Peter
TTITLE4=Sugar Magnolia
TTITLE5=One More Saturday Night
EXTD=
EXTT0=
EXTT1=
EXTT2=
EXTT3=
EXTT4=
EXTT5=
PLAYORDER=
